<?xml version="1.0" standalone="no"?>
<!DOCTYPE svg PUBLIC "-//W3C//DTD SVG 20010904//EN"
 "http://www.w3.org/TR/2001/REC-SVG-20010904/DTD/svg10.dtd">
<svg version="1.0" xmlns="http://www.w3.org/2000/svg"
 width="512.000000pt" height="512.000000pt" viewBox="0 0 512.000000 512.000000"
 preserveAspectRatio="xMidYMid meet">
<metadata>
Created by potrace 1.11, written by Peter Selinger 2001-2013
</metadata>
<g transform="translate(0.000000,512.000000) scale(0.100000,-0.100000)"
fill="#000000" stroke="none">
<path d="M0 2560 l0 -2560 2560 0 2560 0 0 2560 0 2560 -2560 0 -2560 0 0
-2560z m2926 1329 c97 -46 157 -141 157 -249 0 -84 -26 -141 -89 -200 -60 -55
-105 -73 -185 -73 -109 0 -201 60 -250 161 -29 59 -30 160 -2 222 22 49 82
113 126 137 69 35 169 36 243 2z m-522 -540 c22 -6 54 -27 75 -49 20 -20 128
-122 240 -226 l205 -189 142 -5 c124 -4 146 -8 171 -26 61 -45 61 -143 0 -188
-26 -19 -45 -21 -185 -24 -112 -2 -168 0 -194 10 -23 8 -114 85 -253 213 -119
110 -221 202 -227 204 -13 5 -249 -231 -246 -245 2 -7 141 -145 310 -308 246
-238 310 -304 318 -334 8 -25 10 -148 8 -369 -3 -318 -4 -333 -24 -360 -45
-61 -143 -61 -188 0 -20 27 -21 42 -24 343 l-3 314 -322 310 c-177 170 -332
324 -344 341 -26 37 -29 78 -9 117 21 38 446 459 476 471 32 13 29 13 74 0z"/>
</g>
</svg>
